<?xml version="1.0" standalone="no"?><!DOCTYPE svg PUBLIC "-//W3C//DTD SVG 1.1//EN" "http://www.w3.org/Graphics/SVG/1.1/DTD/svg11.dtd"><svg t="1604041567834" class="icon" viewBox="0 0 1024 1024" version="1.1" xmlns="http://www.w3.org/2000/svg" p-id="13888" xmlns:xlink="http://www.w3.org/1999/xlink" width="32" height="32"><defs><style type="text/css"></style></defs><path d="M727.552 460.8h-308.906667l129.877334-129.877333a51.882667 51.882667 0 0 0 1.024-73.386667 51.882667 51.882667 0 0 0-73.386667 0.853333L260.096 474.709333c-0.512 0.341333-1.109333 0.512-1.536 1.024a50.517333 50.517333 0 0 0-14.677333 36.864 50.346667 50.346667 0 0 0 14.677333 35.925334c0.426667 0.426667 1.024 0.597333 1.365333 0.853333L476.16 765.610667c20.48 20.48 53.418667 21.077333 73.386667 1.024a51.882667 51.882667 0 0 0-1.024-73.301334L418.645333 563.2h308.906667c29.013333 0 52.565333-22.954667 52.565333-51.2 0-28.245333-23.552-51.2-52.565333-51.2z" p-id="13889"></path><path d="M512 0a512 512 0 0 0-512 512 512 512 0 0 0 512 512 512 512 0 0 0 512-512 512 512 0 0 0-512-512z m0 921.6a409.6 409.6 0 1 1 0-819.2 409.6 409.6 0 0 1 0 819.2z" p-id="13890"></path></svg>