<?xml version="1.0" standalone="no"?><!DOCTYPE svg PUBLIC "-//W3C//DTD SVG 1.1//EN" "http://www.w3.org/Graphics/SVG/1.1/DTD/svg11.dtd"><svg t="1605838966552" class="icon" viewBox="0 0 1750 1024" version="1.1" xmlns="http://www.w3.org/2000/svg" p-id="6836" xmlns:xlink="http://www.w3.org/1999/xlink" width="54.6875" height="32"><defs><style type="text/css"></style></defs><path d="M460.370002 18.999263a102.185288 102.185288 0 0 1 71.545022 29.567857 101.725684 101.725684 0 0 1 0 143.243245 101.725684 101.725684 0 0 1-143.243245 0 101.725684 101.725684 0 0 1 0-143.243245A102.185288 102.185288 0 0 1 460.370002 18.999263z m49.943634 51.016044a71.238619 71.238619 0 0 0-99.427664 0 71.238619 71.238619 0 0 0 0 99.887268 70.319411 70.319411 0 0 0 99.887268 0 70.319411 70.319411 0 0 0 0-99.887268zM256.612231 345.777704a100.500074 100.500074 0 0 1 71.238619 29.567857 100.04047 100.04047 0 0 1 30.640266 71.698223 98.96806 98.96806 0 0 1-30.640266 71.23862 101.112879 101.112879 0 0 1-142.936842 0 100.806476 100.806476 0 0 1-30.640267-71.23862 101.878886 101.878886 0 0 1 30.640267-71.698223 100.653275 100.653275 0 0 1 71.698223-29.567857z m49.48403 51.169245a68.174593 68.174593 0 0 0-49.48403-20.528979 69.093801 69.093801 0 0 0-49.943634 20.835381 70.625814 70.625814 0 0 0-20.375777 49.943635 71.391821 71.391821 0 0 0 20.375777 49.943634 70.625814 70.625814 0 0 0 49.943634 20.375777 69.553405 69.553405 0 0 0 49.48403-20.375777 71.391821 71.391821 0 0 0 20.375777-49.943634 70.625814 70.625814 0 0 0-20.375777-49.943635zM101.112879 683.893043a101.419282 101.419282 0 0 1 71.698223 29.567857 101.725684 101.725684 0 0 1 0 143.243246 101.419282 101.419282 0 0 1-71.698223 29.567857 100.500074 100.500074 0 0 1-71.238619-29.567857 100.500074 100.500074 0 0 1-29.567857-71.23862 101.419282 101.419282 0 0 1 29.261454-72.004626 100.500074 100.500074 0 0 1 71.238619-29.567857z m49.330829 51.169245a69.093801 69.093801 0 0 0-49.943634-20.835381 69.859807 69.859807 0 0 0-49.943634 20.835381 70.625814 70.625814 0 0 0-20.375778 49.943634 71.391821 71.391821 0 0 0 20.375778 49.943635 71.391821 71.391821 0 0 0 49.943634 20.375777 70.625814 70.625814 0 0 0 49.943634-20.375777 69.859807 69.859807 0 0 0 20.835381-49.943635 69.093801 69.093801 0 0 0-20.835381-49.943634z" p-id="6837"></path><path d="M1054.331566 454.55065a100.806476 100.806476 0 0 1 71.238619 30.640266 100.653275 100.653275 0 0 1 29.567857 71.698223 98.96806 98.96806 0 0 1-30.640266 71.23862 100.193671 100.193671 0 0 1-142.936843 0 101.112879 101.112879 0 0 1 0-142.936843 101.878886 101.878886 0 0 1 71.698223-30.640266z m49.943634 51.169244a71.391821 71.391821 0 0 0-49.943634-20.375777 70.625814 70.625814 0 0 0-49.943634 20.375777 69.093801 69.093801 0 0 0-20.835382 49.943635 68.174593 68.174593 0 0 0 21.294986 50.556439 70.625814 70.625814 0 0 0 49.48403 20.375777 71.391821 71.391821 0 0 0 50.403238-20.375777 69.553405 69.553405 0 0 0 20.375777-49.48403 70.625814 70.625814 0 0 0-20.375777-49.943634z" p-id="6838"></path><path d="M1054.331566 246.503241h12.562509c5.208845 0 9.19208 0 12.562509 0.919208a15.320133 15.320133 0 0 1 13.481717 11.336898l26.044227 87.32476c6.587657 2.144819 13.022113 4.289637 19.150166 6.89406h0.919208c5.668449 2.604423 11.796503 5.208845 17.311751 8.272871l81.809511-43.049574a15.320133 15.320133 0 0 1 17.31175 2.144819q9.804885 8.426073 18.230959 17.005348c5.668449 5.668449 11.796503 12.102905 17.31175 18.690562a15.320133 15.320133 0 0 1 1.378812 17.311751l-43.815581 79.664692c3.064027 6.128053 6.128053 12.102905 8.732476 18.230959 2.604423 6.587657 4.749241 12.562509 6.89406 19.150166l87.784363 26.044227a15.320133 15.320133 0 0 1 10.877295 13.481717 107.240932 107.240932 0 0 1 0.919208 12.562509v25.584622a101.112879 101.112879 0 0 1-0.919208 12.56251 15.320133 15.320133 0 0 1-11.336899 13.481717l-87.324759 27.423038c-2.144819 6.587657-4.289637 13.022113-6.89406 19.150167a132.365951 132.365951 0 0 1-8.272872 17.771354l43.815581 80.737102a15.320133 15.320133 0 0 1-2.144818 17.311751q-8.426073 9.804885-17.005348 18.230958c-5.668449 5.668449-12.102905 11.796503-18.690563 17.311751a15.320133 15.320133 0 0 1-17.31175 1.378812l-80.277498-43.355977c-6.128053 3.064027-12.102905 6.128053-18.230958 8.732476-6.128053 2.604423-12.562509 4.749241-19.150167 6.89406l-26.044226 87.784363a15.320133 15.320133 0 0 1-13.481718 10.877294c-3.523631 0-7.813268 0-12.562509 0.919208s-9.19208 0-12.562509 0h-13.022113c-5.208845 0-8.732476 0-12.102905-0.919208a15.320133 15.320133 0 0 1-13.941322-11.336898l-26.044226-87.324759c-6.587657-2.144819-12.562509-4.289637-19.150167-6.89406s-12.102905-5.668449-18.230958-8.732476l-80.890303 43.662379a15.320133 15.320133 0 0 1-16.852147-2.144818 226.737971 226.737971 0 0 1-19.150166-16.852147c-5.668449-5.668449-11.336899-12.102905-17.005348-18.690562a15.320133 15.320133 0 0 1-1.685215-17.311751l43.355977-80.277498c-3.064027-6.128053-6.128053-12.102905-8.732476-18.230958v-0.919208c-2.604423-6.128053-4.749241-12.102905-6.89406-18.230959l-87.784363-26.044226a15.320133 15.320133 0 0 1-10.877294-13.481717c0-3.523631 0-7.813268-0.919208-12.56251v-25.737823c0-4.749241 0-8.732476 0.919208-12.56251a15.320133 15.320133 0 0 1 11.796502-13.481717l86.865155-26.044226c2.144819-6.587657 4.289637-12.562509 6.89406-19.150167 2.604423-6.128053 5.668449-12.102905 8.732476-18.230958l-43.355977-80.737102a14.247724 14.247724 0 0 1 1.685215-17.005348 226.737971 226.737971 0 0 1 17.005348-18.690562c6.128053-6.128053 12.562509-11.796503 18.690562-17.005348a15.320133 15.320133 0 0 1 17.311751-1.685215l80.277498 43.355977c6.128053-3.064027 12.102905-6.128053 18.230958-8.732476s12.562509-4.749241 19.150167-6.89406l26.50383-87.784363a15.320133 15.320133 0 0 1 13.481717-10.877294c3.523631 0 7.353664 0 12.102905-0.919208s9.498483 0 13.022114 0z m11.336898 30.640266H1041.769056l-25.584622 85.486343a15.320133 15.320133 0 0 1-10.417691 10.417691 219.384307 219.384307 0 0 0-23.899407 7.813268 202.532161 202.532161 0 0 0-21.754589 10.877295 15.320133 15.320133 0 0 1-15.320134 0l-77.979477-41.36436-9.19208 8.732476-8.732476 9.19208 42.58997 78.592283a15.320133 15.320133 0 0 1 0 15.320133 212.337046 212.337046 0 0 0-11.183697 21.448187 204.830181 204.830181 0 0 0-7.813268 22.980199 15.320133 15.320133 0 0 1-10.417691 11.336899l-85.486343 25.584622v1.378812a91.920799 91.920799 0 0 0 0 11.796503 87.324759 87.324759 0 0 0 0 11.336898v0.919208l85.486343 25.584623a15.320133 15.320133 0 0 1 10.417691 10.877294 197.936121 197.936121 0 0 0 7.813268 22.520596v0.919208c3.523631 7.353664 6.89406 15.320133 10.877294 21.754589a15.320133 15.320133 0 0 1 0 15.320134l-42.130366 78.132679 8.732476 9.19208c3.064027 3.064027 6.128053 6.128053 9.19208 8.732476l78.592283-42.589971a13.941321 13.941321 0 0 1 15.320133 0 208.966617 208.966617 0 0 0 22.214193 10.877295 239.606883 239.606883 0 0 0 22.9802 7.813268 13.941321 13.941321 0 0 1 11.336899 10.41769l25.584622 85.945948h24.818616l25.584622-85.945948a15.320133 15.320133 0 0 1 10.877295-10.41769q11.796503-3.217228 23.439804-7.813268a202.532161 202.532161 0 0 0 21.754589-10.877295 16.545744 16.545744 0 0 1 15.320133 0l78.592283 42.589971 8.732476-8.732476c3.064027-3.064027 6.128053-6.128053 8.732476-9.19208l-42.58997-78.592283a15.320133 15.320133 0 0 1 0-15.320134c3.983235-6.89406 7.353664-14.400925 10.41769-21.294985v-0.919208a204.983382 204.983382 0 0 0 7.813268-22.9802 15.320133 15.320133 0 0 1 10.417691-11.336898L1332.851587 568.072836v-24.512213l-85.945947-25.584622a15.320133 15.320133 0 0 1-10.417691-10.877295q-3.217228-11.796503-7.813268-23.439803a144.775259 144.775259 0 0 0-10.877294-21.754589 15.320133 15.320133 0 0 1 0-15.320134l42.58997-78.592283c-2.604423-3.064027-5.668449-6.128053-8.732476-9.19208l-8.732476-8.732476L1164.330122 392.657312a15.320133 15.320133 0 0 1-15.320133 0 140.33242 140.33242 0 0 0-21.294985-10.877295h-0.919208a204.830181 204.830181 0 0 0-22.9802-7.813268 15.320133 15.320133 0 0 1-11.336899-10.417691l-25.584622-85.486343z" p-id="6839"></path><path d="M546.315949 135.432275a15.320133 15.320133 0 0 1-15.320133-15.320133 15.320133 15.320133 0 0 1 15.320133-15.320133h259.216654a15.320133 15.320133 0 0 1 15.320133 15.320133 15.320133 15.320133 0 0 1-15.320133 15.320133zM342.251775 462.363917a15.320133 15.320133 0 0 1 0-30.640266h157.644171a15.320133 15.320133 0 0 1 0 30.640266zM187.212028 800.326056a15.320133 15.320133 0 0 1-15.320134-15.320134 15.320133 15.320133 0 0 1 15.320134-15.320133h223.673944a15.320133 15.320133 0 0 1 15.320133 15.320133 15.320133 15.320133 0 0 1-15.320133 15.320134z" p-id="6840"></path><path d="M1449.131398 1023.846799H714.837414a335.970521 335.970521 0 0 1-52.548056-667.957807 398.323463 398.323463 0 0 1 794.348905 47.339211c0 9.19208 0 18.230958-0.919208 27.423039a77.519874 77.519874 0 0 0-0.919208 9.958086 291.634055 291.634055 0 0 1-5.668449 583.237471z m-734.293984-30.640267h734.293984a261.208271 261.208271 0 0 0 0-522.416541h-5.668449a24.971817 24.971817 0 0 0-5.208846 0 5.515248 5.515248 0 0 1-2.604422 0 15.320133 15.320133 0 0 1-13.481718-17.005348 243.590118 243.590118 0 0 0 2.604423-25.584623 235.77685 235.77685 0 0 0 0.919208-25.125018 367.683196 367.683196 0 0 0-734.293983-32.631884 15.320133 15.320133 0 0 1-13.481718 13.941322 305.483456 305.483456 0 0 0 36.921521 608.822092z" p-id="6841"></path></svg>