<?xml version="1.0" standalone="no"?><!DOCTYPE svg PUBLIC "-//W3C//DTD SVG 1.1//EN" "http://www.w3.org/Graphics/SVG/1.1/DTD/svg11.dtd"><svg t="1605840178184" class="icon" viewBox="0 0 1024 1024" version="1.1" xmlns="http://www.w3.org/2000/svg" p-id="8419" xmlns:xlink="http://www.w3.org/1999/xlink" width="32" height="32"><defs><style type="text/css"></style></defs><path d="M672.914286 1024h-321.828572c-193.097143 0-351.085714-157.988571-351.085714-351.085714v-321.828572c0-193.097143 157.988571-351.085714 351.085714-351.085714h321.828572c194.56 0 351.085714 157.988571 351.085714 351.085714v321.828572c0 193.097143-157.988571 351.085714-351.085714 351.085714z" fill="#FFEFD2" p-id="8420"></path><path d="M751.908571 626.102857c-20.48 0-38.034286 5.851429-54.125714 16.091429l-64.365714-62.902857c19.017143-23.405714 30.72-54.125714 30.72-87.771429 0-38.034286-14.628571-71.68-39.497143-96.548571l52.662857-52.662858c10.24 5.851429 20.48 8.777143 33.645714 8.777143 39.497143 2.925714 73.142857-30.72 73.142858-71.68 0-39.497143-33.645714-73.142857-73.142858-73.142857s-73.142857 33.645714-73.142857 73.142857c0 13.165714 4.388571 24.868571 8.777143 35.108572l-57.051428 57.051428c-19.017143-10.24-40.96-16.091429-67.291429-16.091428-33.645714 0-64.365714 13.165714-90.697143 33.645714l-54.125714-57.051429c4.388571-10.24 8.777143-20.48 8.777143-30.72 0-39.497143-33.645714-73.142857-73.142857-73.142857s-73.142857 33.645714-73.142858 73.142857 33.645714 73.142857 73.142858 73.142858c14.628571 0 27.794286-4.388571 39.497142-10.24l57.051429 54.125714c-14.628571 20.48-20.48 46.811429-20.48 73.142857 0 23.405714 5.851429 46.811429 16.091429 64.365714l-46.811429 46.811429c-19.017143-13.165714-39.497143-20.48-64.365714-20.48-64.365714 1.462857-117.028571 54.125714-117.028572 117.028571s52.662857 115.565714 115.565715 115.565715c62.902857 0 115.565714-52.662857 115.565714-115.565715 0-24.868571-8.777143-48.274286-20.48-64.365714l40.96-40.96c24.868571 24.868571 58.514286 39.497143 96.548571 39.497143 29.257143 0 57.051429-8.777143 77.531429-23.405714l68.754286 67.291428c-8.777143 10.24-13.165714 27.794286-13.165715 43.885714 0 52.662857 40.96 93.622857 93.622857 93.622858 52.662857 0 93.622857-40.96 93.622858-93.622858 0-52.662857-40.96-95.085714-93.622858-95.085714z" fill="#FFB034" p-id="8421"></path><path d="M446.171429 434.468571c-1.462857 0-2.925714 0-4.388572-1.462857-4.388571-2.925714-5.851429-8.777143-2.925714-11.702857 10.24-17.554286 36.571429-35.108571 65.828571-36.571428 4.388571 0 8.777143 2.925714 8.777143 8.777142 0 4.388571-2.925714 8.777143-8.777143 8.777143-21.942857 1.462857-42.422857 14.628571-51.2 29.257143-1.462857 1.462857-4.388571 2.925714-7.314285 2.925714zM425.691429 471.04h-2.925715c-4.388571-1.462857-5.851429-5.851429-4.388571-8.777143l1.462857-2.925714c1.462857-4.388571 2.925714-8.777143 5.851429-13.165714 1.462857-2.925714 5.851429-4.388571 10.24-2.925715 2.925714 1.462857 4.388571 5.851429 2.925714 10.24-1.462857 2.925714-2.925714 7.314286-4.388572 11.702857l-1.462857 2.925715c-1.462857 1.462857-4.388571 2.925714-7.314285 2.925714z" fill="#FFFFFF" p-id="8422"></path></svg>