<?xml version="1.0" standalone="no"?><!DOCTYPE svg PUBLIC "-//W3C//DTD SVG 1.1//EN" "http://www.w3.org/Graphics/SVG/1.1/DTD/svg11.dtd"><svg t="1605840190085" class="icon" viewBox="0 0 1024 1024" version="1.1" xmlns="http://www.w3.org/2000/svg" p-id="8562" xmlns:xlink="http://www.w3.org/1999/xlink" width="32" height="32"><defs><style type="text/css"></style></defs><path d="M330.24 725.333333C194.986667 725.333333 85.333333 617.898667 85.333333 485.333333 85.333333 365.738667 174.592 266.581333 291.370667 248.32 336.597333 152.106667 435.797333 85.333333 550.954667 85.333333c147.456 0 268.8 109.525333 284.074666 250.069334C897.109333 372.224 938.666667 439.04 938.666667 515.328c0 112.64-90.453333 204.544-204.074667 209.792V725.333333H330.24zM384 725.333333v106.666667a64 64 0 0 1-57.856 63.701333L320 896l-75.434667 0.042667a85.333333 85.333333 0 1 1 0-85.376H298.666667v-85.333334h85.333333z m170.666667 0l0.042666 54.101334a85.333333 85.333333 0 1 1-85.376 0V725.333333h85.333334z m170.666666 0v85.333334h54.101334a85.333333 85.333333 0 1 1 0 85.376L704 896a64 64 0 0 1-64-64V725.333333h85.333333z" fill="#2F54C9" p-id="8563"></path><path d="M384 469.333333a128 128 0 0 1 128 128H384z m0-170.666666a298.666667 298.666667 0 0 1 298.666667 298.666666h-85.333334a213.333333 213.333333 0 0 0-213.333333-213.333333z" fill="#B0BEEA" p-id="8564"></path></svg>