<?xml version="1.0" standalone="no"?><!DOCTYPE svg PUBLIC "-//W3C//DTD SVG 1.1//EN" "http://www.w3.org/Graphics/SVG/1.1/DTD/svg11.dtd"><svg t="1603941768460" class="icon" viewBox="0 0 1028 1024" version="1.1" xmlns="http://www.w3.org/2000/svg" p-id="6048" xmlns:xlink="http://www.w3.org/1999/xlink" width="32.125" height="32"><defs><style type="text/css"></style></defs><path d="M986.359661 1024H41.695672a41.752789 41.752789 0 0 1-41.695672-41.695672V394.224007a41.752789 41.752789 0 0 1 41.695672-41.695671h344.988844l6.682731-4.283802 110.293619-142.793396a12.223115 12.223115 0 0 1 11.02365-6.968318 12.394467 12.394467 0 0 1 11.02365 6.968318l108.97992 142.793396 6.739848 4.283802h344.931727a41.752789 41.752789 0 0 1 41.752789 41.695671v588.308791a41.752789 41.752789 0 0 1-41.752789 41.467202zM856.760375 492.237394a57.117358 57.117358 0 0 0-57.117358 57.117358v250.059795a57.117358 57.117358 0 1 0 114.234716 0V549.354752a57.117358 57.117358 0 0 0-57.117358-57.117358z m-171.352075 0a57.117358 57.117358 0 0 0-57.117358 57.117358v250.059795a57.117358 57.117358 0 1 0 114.234716 0V549.354752a57.117358 57.117358 0 0 0-57.117358-57.117358z m-389.026328 0a182.147256 182.147256 0 1 0 182.204373 182.147256 182.375725 182.375725 0 0 0-182.204373-182.147256z m0 242.863008a60.715752 60.715752 0 1 1 60.715752-60.715752 60.772869 60.772869 0 0 1-60.772869 60.658634zM287.12896 142.107988a41.867024 41.867024 0 0 1-36.555109-21.133423 41.467202 41.467202 0 0 1 16.107095-56.546185A492.237394 492.237394 0 0 1 508.344489 0a611.155734 611.155734 0 0 1 258.912985 62.829094 41.638554 41.638554 0 0 1-35.584114 75.280678 527.878626 527.878626 0 0 0-223.328871-54.946898 409.759929 409.759929 0 0 0-201.224453 53.633199 41.638554 41.638554 0 0 1-19.991076 5.311915z"  p-id="6049"></path></svg>