<?xml version="1.0" standalone="no"?><!DOCTYPE svg PUBLIC "-//W3C//DTD SVG 1.1//EN" "http://www.w3.org/Graphics/SVG/1.1/DTD/svg11.dtd"><svg t="1604037598209" class="icon" viewBox="0 0 1024 1024" version="1.1" xmlns="http://www.w3.org/2000/svg" p-id="6496" xmlns:xlink="http://www.w3.org/1999/xlink" width="32" height="32"><defs><style type="text/css"></style></defs><path d="M511.52045 0a511.52045 511.52045 0 1 0 511.520449 511.52045 511.52045 511.52045 0 0 0-511.520449-511.52045z m314.265376 799.250702c-11.50921-60.743053-117.010303-118.608804-211.961287-150.578832-4.795504 0-33.56853-14.706213-15.025913-70.014361a309.469872 309.469872 0 0 0 83.122073-204.927881c0-117.969404-79.28567-179.991258-170.400249-179.991258s-169.441149 63.940056-169.441149 181.58976a309.469872 309.469872 0 0 0 83.122073 205.567281c18.542616 48.594443-14.706213 67.137059-21.419919 69.374961-90.155479 31.970028-195.017171 91.43428-206.526382 150.578832a429.357477 429.357477 0 1 1 628.850453 0z" p-id="6497"></path></svg>